<svg width="21" height="20" viewBox="0 0 21 20" fill="none" xmlns="http://www.w3.org/2000/svg">
<g clip-path="url(#clip0_5_244)">
<path d="M18.8333 2.22223H2.16667C1.24653 2.22223 0.5 2.96876 0.5 3.8889V16.1111C0.5 17.0313 1.24653 17.7778 2.16667 17.7778H18.8333C19.7535 17.7778 20.5 17.0313 20.5 16.1111V3.8889C20.5 2.96876 19.7535 2.22223 18.8333 2.22223ZM6.61111 5.55556C7.83681 5.55556 8.83333 6.55209 8.83333 7.77778C8.83333 9.00348 7.83681 10 6.61111 10C5.38542 10 4.38889 9.00348 4.38889 7.77778C4.38889 6.55209 5.38542 5.55556 6.61111 5.55556ZM10.5 13.7778C10.5 14.1458 10.1528 14.4445 9.72222 14.4445H3.5C3.06944 14.4445 2.72222 14.1458 2.72222 13.7778V13.1111C2.72222 12.007 3.76736 11.1111 5.05556 11.1111H5.22917C5.65625 11.2882 6.12153 11.3889 6.61111 11.3889C7.10069 11.3889 7.56944 11.2882 7.99306 11.1111H8.16667C9.45486 11.1111 10.5 12.007 10.5 13.1111V13.7778ZM18.2778 11.9445C18.2778 12.0972 18.1528 12.2222 18 12.2222H13C12.8472 12.2222 12.7222 12.0972 12.7222 11.9445V11.3889C12.7222 11.2361 12.8472 11.1111 13 11.1111H18C18.1528 11.1111 18.2778 11.2361 18.2778 11.3889V11.9445ZM18.2778 9.72223C18.2778 9.87501 18.1528 10 18 10H13C12.8472 10 12.7222 9.87501 12.7222 9.72223V9.16667C12.7222 9.0139 12.8472 8.8889 13 8.8889H18C18.1528 8.8889 18.2778 9.0139 18.2778 9.16667V9.72223ZM18.2778 7.50001C18.2778 7.65278 18.1528 7.77778 18 7.77778H13C12.8472 7.77778 12.7222 7.65278 12.7222 7.50001V6.94445C12.7222 6.79167 12.8472 6.66667 13 6.66667H18C18.1528 6.66667 18.2778 6.79167 18.2778 6.94445V7.50001Z" fill="#013159"/>
</g>
<defs>
<clipPath id="clip0_5_244">
<rect width="20" height="20" fill="white" transform="translate(0.5)"/>
</clipPath>
</defs>
</svg>
