<svg width="21" height="20" viewBox="0 0 21 20" fill="none" xmlns="http://www.w3.org/2000/svg">
<path d="M17.375 8.75H16.4375V5.9375C16.4375 2.66406 13.7734 0 10.5 0C7.22656 0 4.5625 2.66406 4.5625 5.9375V8.75H3.625C2.58984 8.75 1.75 9.58984 1.75 10.625V18.125C1.75 19.1602 2.58984 20 3.625 20H17.375C18.4102 20 19.25 19.1602 19.25 18.125V10.625C19.25 9.58984 18.4102 8.75 17.375 8.75ZM13.3125 8.75H7.6875V5.9375C7.6875 4.38672 8.94922 3.125 10.5 3.125C12.0508 3.125 13.3125 4.38672 13.3125 5.9375V8.75Z" fill="#013159"/>
</svg>
