<svg width="21" height="20" viewBox="0 0 21 20" fill="none" xmlns="http://www.w3.org/2000/svg">
<g clip-path="url(#clip0_5_267)">
<path d="M6.05556 16.6666C5.16667 16.6666 4.27778 15.8889 3.83333 15.5555C1.61111 14 0.944444 13.4444 0.5 13.1111V17.7778C0.5 18.3913 0.997569 18.8889 1.61111 18.8889H10.5C11.1135 18.8889 11.6111 18.3913 11.6111 17.7778V13.1111C11.1667 13.4444 10.5 14 8.27778 15.5555C7.83333 15.8889 6.94444 16.6666 6.05556 16.6666ZM10.5 9.99997H1.61111C0.997569 9.99997 0.5 10.4975 0.5 11.1111V11.6666C1.38889 12.3333 1.27778 12.3333 4.5 14.6666C4.83333 14.8889 5.5 15.5555 6.05556 15.5555C6.61111 15.5555 7.27778 14.8889 7.61111 14.7778C10.8333 12.4444 10.7222 12.4444 11.6111 11.7778V11.1111C11.6111 10.4975 11.1135 9.99997 10.5 9.99997ZM19.3889 6.66664H8.27778C7.66424 6.66664 7.16667 7.16421 7.16667 7.77775V8.88886H10.5C11.6531 8.88886 12.6038 9.7715 12.7122 10.8965L12.7222 10.8889V15.5555H19.3889C20.0024 15.5555 20.5 15.058 20.5 14.4444V7.77775C20.5 7.16421 20.0024 6.66664 19.3889 6.66664ZM18.2778 11.1111H16.0556V8.88886H18.2778V11.1111ZM6.05556 7.77775C6.05556 6.5524 7.05243 5.55553 8.27778 5.55553H16.0556V2.2222C16.0556 1.60865 15.558 1.11108 14.9444 1.11108H3.83333C3.21979 1.11108 2.72222 1.60865 2.72222 2.2222V8.88886H6.05556V7.77775Z" fill="#013159"/>
</g>
<defs>
<clipPath id="clip0_5_267">
<rect width="20" height="20" fill="white" transform="translate(0.5)"/>
</clipPath>
</defs>
</svg>
